<svg xmlns="http://www.w3.org/2000/svg" xmlns:xlink="http://www.w3.org/1999/xlink" aria-hidden="true" role="img" class="iconify iconify--logos" width="35.93" height="32" preserveAspectRatio="xMidYMid meet" viewBox="0 0 256 228"><path fill="#00D8FF" d="M210.483 73.824a171.49 171.49 0 0 0-8.24-2.597c.465-1.9.893-3.777 1.273-5.621c6.238-30.281 2.16-54.676-11.769-62.708c-13.355-7.7-35.196.329-57.254 19.526a171.23 171.23 0 0 0-6.375 5.848a155.866 155.866 0 0 0-4.241-3.917C100.759 3.829 77.587-4.822 63.673 3.233C50.33 10.957 46.379 33.89 51.995 62.588a170.974 170.974 0 0 0 1.892 8.48c-3.28.932-6.445 1.924-9.474 2.98C17.309 83.498 0 98.307 0 113.668c0 15.865 18.582 31.778 46.812 41.427a145.52 145.52 0 0 0 6.921 2.165a167.467 167.467 0 0 0-2.01 9.138c-5.354 28.2-1.173 50.591 12.134 58.266c13.744 7.926 36.812-.22 59.273-19.855a145.567 145.567 0 0 0 5.342-4.923a168.064 168.064 0 0 0 6.92 6.314c21.758 18.722 43.246 26.282 56.54 18.586c13.731-7.949 18.194-32.003 12.4-61.268a145.016 145.016 0 0 0-1.535-6.842c1.62-.48 3.21-.974 4.76-1.488c29.348-9.723 48.443-25.443 48.443-41.52c0-15.417-17.868-30.326-45.517-39.844Zm-6.365 70.984c-1.4.463-2.836.91-4.3 1.345c-3.24-10.257-7.612-21.163-12.963-32.432c5.106-11 9.31-21.767 12.459-31.957c2.619.758 5.16 1.557 7.61 2.4c23.69 8.156 38.14 20.213 38.14 29.504c0 9.896-15.606 22.743-40.946 31.14Zm-10.514 20.834c2.562 12.94 2.927 24.64 1.23 33.787c-1.524 8.219-4.59 13.698-8.382 15.893c-8.067 4.67-25.32-1.4-43.927-17.412a156.557 156.557 0 0 1-6.437-5.87c7.214-7.889 14.423-17.06 21.459-27.246c12.376-1.1 24.068-2.774 34.667-5.1a134.17 134.17 0 0 1 1.39 6.75Zm-8.822-44.766c5.387 11.3 9.789 22.641 13.067 33.68a347.8 347.8 0 0 1-35.413 6.855c-6.387-12.94-13.235-25.333-20.354-36.957c7.404-11.8 14.277-24.359 20.482-37.403c12.24 1.15 24.362 2.868 36.218 5.134Zm-42.34 42.485a381.417 381.417 0 0 1-6.627 12.339c-8.067 14.276-16.346 26.464-24.4 35.883c-8.686 10.17-16.88 17.358-23.8 20.268c-7.6 3.22-18.75 1.716-31.4-4.214c-1.8-.84-3.576-1.748-5.32-2.717c7.28-16.1 18.183-35.04 31.8-55.64c13.284-20.1 28.1-40.1 43.3-59.4c15.516 19.2 30.56 39.1 44.047 59.1Zm-70.3 60.03c-7.846-3.657-14.7-8.443-20.2-14.2a156.927 156.927 0 0 1-5.2-6.1c8.1-12.1 17.1-25.1 26.7-38.6c9.4 13.1 18.2 25.7 26.2 37.5a134.478 134.478 0 0 1-27.5 21.4Zm-5.1-84.3a323.028 323.028 0 0 1-7.1-12.9c-6.1-12.1-11.5-23.7-16.1-34.5c9.2-1.1 18.6-1.9 28.1-2.4c5.1 11.1 10.7 22.9 16.7 35.1a321.2 321.2 0 0 1-21.7 15.7Zm13.2-28.5c-9.5.6-18.9 1.5-28.1 2.7c4.5-10.6 9.7-21.9 15.4-33.5c5.6 11.4 10.9 22.8 15.6 33.8c-1 .3-1.9.7-2.9 1Zm-8.3 15c6.2 11.3 11.9 22.5 17 33.1a358.1 358.1 0 0 1-34.1 6.2c4.9-10.2 10.2-21.1 15.8-32.3c1.1.3 2.1.7 3.2 1a348.1 348.1 0 0 1-1.9.5c6.1 11.5 11.8 22.7 17 33.2Zm-49.6-15.6c12.1-2.2 24.4-4.1 36.7-5.6c-5.1-12.2-10.7-24.3-16.5-36.1c-12.1 2.2-24.1 4.7-35.8 7.5c5.8 11.4 11.2 22.7 16 34.2Zm-8.1 20.6c10.1-2.1 20.5-4 31-5.7c-6.2-12.4-12.9-24.5-19.9-36.2c-10.1 2.1-20.1 4.5-29.8 7.2c6.8 11.5 13.2 22.8 18.7 34.7Zm-12.3 35.5c-1.1-.5-2.2-1-3.3-1.6c7.3-15.8 16.1-32.3 26.1-49.1a347.8 347.8 0 0 1 20.4 36.1a381.417 381.417 0 0 1-43.2 14.6Zm55.7 15.1c-15.1-19.1-30.1-39.1-44.1-59.1c13.5-20 28.4-40 43.9-59.2c15.2 19.1 30.1 39.1 44.1 59.1c-13.5 20.1-28.4 40.1-43.9 59.2Zm32.3-3.2c8.1 14.3 16.4 26.5 24.5 35.9c8.7 10.2 16.9 17.4 23.8 20.3c7.6 3.2 18.8 1.7 31.4-4.2c1.8-.8 3.6-1.8 5.3-2.7c-7.3-16.1-18.2-35-31.8-55.6c-13.3-20.1-28.1-40.1-43.3-59.4a156.927 156.927 0 0 1-5.2 6.1c-5.5 5.8-12.4 10.5-20.2 14.2a134.478 134.478 0 0 1 26.5-21.4Zm-21.7 4.2c6.1 12.1 13.1 25.1 21.2 37.6a347.8 347.8 0 0 1-35.4-6.9c4.9-10.2 10.1-21.1 15.7-32.3c1.1.3 2.2.7 3.3 1.1a358.1 358.1 0 0 1-4.8.5Zm-1.3-10.7c-6.2-11.3-11.9-22.5-17-33.1c5.1-10.4 10.4-21.3 16-32.5c10.1 2.1 20.1 4.5 29.8 7.2c-6.8 11.5-13.2 22.8-18.7 34.7a358.1 358.1 0 0 1-10.1 23.7Zm-8.4-45.7c-12.1 2.2-24.4 4.1-36.7 5.6c5.8 11.4 11.2 22.7 16 34.2c10.1-2.1 20.5-4 31-5.7c-6.2-12.4-12.9-24.5-19.9-36.2a323.028 323.028 0 0 1 9.6 2.1Zm70.9-41.2c5.4 11.3 9.8 22.6 13.1 33.7c-12.2 1.1-24.4 2.9-36.2 5.1c-5.1-11.1-10.7-22.9-16.7-35.1c9.5-.6 18.9-1.5 28.1-2.7c4.5 10.6 9.7 21.9 15.4 33.5a321.2 321.2 0 0 1-3.7 4.5Zm-8.3 15c6.2 11.3 11.9 22.5 17 33.2c-10.1 2.1-20.1 4.5-29.8 7.2c6.8-11.5 13.2-22.8 18.7-34.7c1.1.3 2.2.7 3.3 1.1a358.1 358.1 0 0 1-9.2-6.8Zm42.3 42.5c-12.2-1.1-24.4-2.9-36.2-5.1c5.1-11.1 10.7-22.9 16.7-35.1c12.1 2.2 24.1 4.7 35.8 7.5c-5.8 11.4-11.2 22.7-16 34.2a321.2 321.2 0 0 1 0-1.1Zm8.8 44.8c-5.4-11.3-9.8-22.6-13.1-33.7a347.8 347.8 0 0 1 35.4-6.9c6.1 12.1 13.1 25.1 21.2 37.6c-12.2 1.1-24.4 2.9-36.2 5.1a358.1 358.1 0 0 1-7.3-2.1Zm10.5-20.8c-2.6-12.9-2.9-24.6-1.2-33.8c1.5-8.2 4.6-13.7 8.4-15.9c8.1-4.7 25.3 1.4 43.9 17.4a156.557 156.557 0 0 1 6.4 5.9c-7.2 7.9-14.4 17.1-21.5 27.2c-12.4 1.1-24.1 2.8-34.7 5.1a134.17 134.17 0 0 1-1.9-6.8Z"></path></svg>
